<svg version="1.1" viewBox="0.0 0.0 292.67979002624674 292.67979002624674" fill="none" stroke="none" stroke-linecap="square" stroke-miterlimit="10" xmlns:xlink="http://www.w3.org/1999/xlink" xmlns="http://www.w3.org/2000/svg"><clipPath id="p.0"><path d="m0 0l292.67978 0l0 292.67978l-292.67978 0l0 -292.67978z" clip-rule="nonzero"/></clipPath><g clip-path="url(#p.0)"><path fill="#000000" fill-opacity="0.0" d="m0 0l292.67978 0l0 292.67978l-292.67978 0z" fill-rule="evenodd"/><path fill="#000000" d="m-0.015748031 0l292.6929 0l0 292.063l-292.6929 0z" fill-rule="evenodd"/><path stroke="#000000" stroke-width="1.0" stroke-linejoin="round" stroke-linecap="butt" d="m-0.015748031 0l292.6929 0l0 292.063l-292.6929 0z" fill-rule="evenodd"/><path fill="#ffffff" d="m27.705118 108.06614l80.66024 0l0 -80.66023l75.93071 0l0 80.66023l80.66023 0l0 75.93072l-80.66023 0l0 80.66022l-75.93071 0l0 -80.66022l-80.66024 0z" fill-rule="evenodd"/><path fill="#ff9f50" d="m124.587074 167.14174c-4.7077484 1.3989258 -8.137375 3.7369537 -10.288895 7.014099c-2.1515121 3.2771454 -2.6966476 6.7014923 -1.6353912 10.273056c1.8235931 6.1371307 6.987221 8.981949 15.490883 8.534439c5.5745544 -0.3045349 9.146408 -0.30418396 10.715576 0.0010375977c1.573883 0.296463 2.545395 1.0658417 2.9145203 2.3081207c0.35710144 1.201767 0.08660889 2.4467468 -0.81147766 3.7349396c-0.90008545 1.2814484 -2.5674133 2.2838898 -5.0019836 3.0073395c-2.8515472 0.8473511 -5.5572357 1.0525208 -8.117058 0.61550903c-2.559822 -0.43701172 -4.7904053 -1.2069702 -6.691757 -2.309906l-2.7765121 8.132309c5.605507 3.1249695 12.087036 3.5942993 19.444565 1.4079742c5.1650696 -1.5348206 8.85965 -3.929535 11.083725 -7.1841583c2.2220764 -3.2613678 2.7232513 -6.944519 1.5035095 -11.049438c-1.811554 -6.096634 -6.963684 -8.988953 -15.456375 -8.676956l-6.1371307 0.25862122c-1.8978729 0.115753174 -3.5245514 0.048049927 -4.880028 -0.20310974c-1.355484 -0.2511444 -2.1937256 -0.91685486 -2.5147095 -1.9971008c-0.369133 -1.242279 -0.16364288 -2.3981323 0.6164551 -3.467575c0.7868271 -1.0714417 2.131874 -1.8899536 4.0351562 -2.4555206c4.7481003 -1.4109039 9.2067795 -1.0862732 13.376076 0.9739075l2.9697876 -7.9252167c-5.3219604 -2.6140747 -11.268265 -2.94487 -17.838936 -0.9923706z" fill-rule="evenodd"/><path fill="#ff9f50" d="m147.77536 160.92357l7.414749 24.953629c1.6269836 5.475479 4.531845 9.241318 8.714584 11.297501c4.180725 2.0494385 9.206711 2.201828 15.077942 0.45716858c5.992279 -1.7806396 10.146759 -4.672058 12.463425 -8.674255c2.3146667 -4.008957 2.6585083 -8.751175 1.0315094 -14.226654l-7.3966827 -24.892883l-8.988434 2.6709595l7.321457 24.639679c0.8626404 2.9031525 0.75575256 5.4992523 -0.3206787 7.7882996c-1.0717163 2.2802887 -3.2182922 3.899063 -6.439743 4.8563232c-3.2214508 0.9572754 -5.9171143 0.7773895 -8.087021 -0.53964233c-2.1719055 -1.3237762 -3.6891937 -3.4372406 -4.551834 -6.3404083l-7.321457 -24.639679z" fill-rule="evenodd"/><path fill="#ff9f50" d="m193.20729 147.42328l12.331833 41.501633l8.796753 -2.6139984l-8.633484 -29.055176l20.285156 25.592834l3.8435364 -1.1421204l3.0181885 -32.517517l8.633484 29.055176l8.867386 -2.6349792l-12.331833 -41.501617l-12.398178 3.6841736l-2.5968323 28.060867l-17.488434 -22.092453z" fill-rule="evenodd"/><path fill="#ffffff" d="m28.311258 90.496284l0 3.3919907l5.27862 0l0 14.707481l3.868637 0l0 -14.707481l5.252182 0l0 -3.3919907z" fill-rule="evenodd"/><path fill="#ffffff" d="m45.177315 90.496284l0 18.099472l3.8422012 0l0 -7.596657l8.525986 0l0 7.596657l3.873043 0l0 -18.099472l-3.873043 0l0 7.110817l-8.525986 0l0 -7.110817z" fill-rule="evenodd"/><path fill="#ffffff" d="m64.96668 90.496284l0 18.099472l12.77356 0l0 -3.3919983l-8.931358 0l0 -4.0986557l8.74189 0l0 -3.3919983l-8.74189 0l0 -3.824829l8.931358 0l0 -3.3919907z" fill-rule="evenodd"/><path fill="#ff5656" d="m97.74107 123.348885l14.954903 21.160866l-15.9275055 4.7328644l0.97260284 -25.89373zm-65.01026 6.6606064l16.241348 54.65695l10.867592 -3.229309l-6.721653 -22.620346l24.726269 -7.347412l-3.0437698 -10.243179l-24.726265 7.347412l-3.4321632 -11.550247l25.262165 -7.506653l-3.0437622 -10.243179zm54.737144 -16.265152l-3.5122452 60.526733l12.412987 -3.6885223l0.46492004 -10.21167l21.897202 -6.5067596l5.891121 8.322968l12.40052 -3.6848145l-35.92016 -48.80938z" fill-rule="evenodd"/><path fill="#ff5656" d="m125.535614 102.432526l16.241348 54.65695l10.867584 -3.229309l-16.241333 -54.65695z" fill-rule="evenodd"/><path fill="#ff5656" d="m171.83109 99.82345c2.201767 -0.6542511 4.225174 -0.5394287 6.0702057 0.34448242c1.842392 0.87501526 3.1044312 2.4595413 3.7861176 4.753586c0.68167114 2.2940445 0.49102783 4.3150787 -0.57192993 6.0631027c-1.0655975 1.7391205 -2.6992798 2.935814 -4.9010468 3.5900726l-11.403503 3.3885498l-4.3833313 -14.751244zm-25.31485 -3.6253204l16.241348 54.656944l10.8675995 -3.2292938l-5.7704773 -19.419357l7.963745 -2.3664322l15.803055 16.438164l12.475296 -3.7070312l-17.664886 -17.40902c2.9881897 -1.7201462 5.112274 -4.3398895 6.3722534 -7.8592377c1.2573395 -3.528244 1.2532196 -7.421913 -0.012374878 -11.681015c-1.5271759 -5.139366 -4.33873 -8.895538 -8.434677 -11.268509c-4.0986023 -2.3818588 -8.7526245 -2.79879 -13.962082 -1.2507935z" fill-rule="evenodd"/></g></svg>